<?xml version="1.0" encoding="UTF-8"?><svg version="1.1" width="960px" height="960px" viewBox="0 0 960.0 960.0" xmlns="http://www.w3.org/2000/svg" xmlns:xlink="http://www.w3.org/1999/xlink"><defs><clipPath id="i0"><path d="M272.624401,0.147295579 L723.222498,13.0409158 C820.588918,15.8270032 898.074003,95.5609967 898.074003,192.96727 L898.074003,696.434006 C898.074003,799.253643 820.113092,885.321111 717.794505,895.459386 L229.398212,943.852311 C224.692054,944.318488 219.962734,944.50606 215.234944,944.413977 C146.447639,943.074027 92.5768436,921.260152 55.0698265,878.704114 C17.4335848,836.001455 -1.00788326,785.353434 0.0424548044,727.728592 L0.0739286616,726.256094 L0.0740027357,182.313291 C0.0740027357,113.644234 44.0226793,52.7735923 109.009889,31.0748471 L110.985615,30.4293319 L152.736429,17.0862881 C191.456165,4.71193951 231.992017,-1.01537806 272.624401,0.147295579 Z M858.074,600.418 L712.445028,610.650404 C712.492229,618.917223 712.083749,627.298815 711.194767,635.756912 C700.409382,738.372991 622.784664,815.2694 535.882109,808.815041 C535.128312,808.878397 534.355234,808.862063 533.573736,808.752231 L529.829686,808.231702 C527.769721,807.987494 525.724392,807.698126 523.694289,807.364512 L491.146472,802.789468 C411.768819,791.633666 354.14974,721.067689 347.670763,636.281296 L84.074,654.802 L84.074,761.541782 C84.074,838.861647 146.754138,901.541782 224.074,901.541782 C225.885447,901.541782 227.696721,901.506625 229.506801,901.436331 L266.182,900.011 L713.850405,855.65431 C794.886725,847.624796 856.82468,780.060721 858.055335,698.89761 L858.074,696.434006 L858.074,600.418 Z M105.993758,75.5176991 L104.704077,76.177094 C65.4999553,96.4103893 40.0740027,137.106002 40.0740027,182.313291 L40.0740027,726.480094 L40.0724409,726.730035 L40.0363507,728.427396 C39.1594887,776.125353 54.0744206,817.078733 85.0781789,852.256074 C93.1920274,861.462171 102.328895,869.458109 112.518672,876.238346 C82.6360821,847.169683 64.0740027,806.523435 64.0740027,761.541782 L64.0740027,183.486383 C64.0740027,141.920648 79.9405269,103.999259 105.993758,75.5176991 Z M411.843676,604.293845 C402.263493,695.443198 453.733069,775.472587 526.81354,787.606538 L532.402,788.39 L533.7519,788.546077 C609.715021,796.530123 680.004288,729.045335 690.989647,636.479008 L691.304329,633.666343 C701.184964,539.65838 646.126531,457.478803 569.396106,449.414111 C492.66568,441.349418 421.724311,510.285882 411.843676,604.293845 Z M482.404096,450.21918 L481.768137,450.41878 C424.844854,468.497567 378.819306,523.124986 368.964474,593.245755 C358.654619,666.604191 391.073236,734.574336 445.048673,766.005197 C406.564607,727.396253 385.137771,667.048121 391.953239,602.203276 C398.988628,535.266016 434.464511,479.272614 482.404096,450.21918 Z M579.849477,486.827966 C643.564487,495.782527 686.585783,564.446732 675.940233,640.19376 C665.294682,715.940789 605.013538,770.086782 541.298528,761.132221 C477.583519,752.177661 434.562222,683.513456 445.207773,607.766428 C455.853323,532.019399 516.134468,477.873406 579.849477,486.827966 Z M649.095266,666.053598 L473.910147,682.777404 C487.37164,714.322341 512.916073,736.946776 544.08199,741.32686 C588.052994,747.506582 631.277758,715.692515 649.095266,666.053598 Z M465.013134,610.54989 C462.411753,629.059676 463.44722,646.969469 467.444208,663.304779 L654.784535,645.418342 C655.303808,642.784251 655.754874,640.114123 656.134871,637.410298 C665.339487,571.916053 629.010864,513.9337 577.066015,506.633328 C525.121166,499.332955 474.21775,545.055645 465.013134,610.54989 Z M320.111,41.522 L221.251996,43.5148278 C218.032847,43.57973 214.840879,43.7529144 211.679539,44.0308627 C200.073011,45.8939965 188.565245,48.3946399 177.210261,51.5278426 C122.852673,70.823751 84.074,122.701575 84.074,183.486383 L84.074,634.752 L148.074,630.255 L148.074,162.480094 C148.074,156.903266 152.635729,152.404073 158.212026,152.480073 L810.212026,161.481046 C815.680526,161.556532 820.074,166.011073 820.074,171.480094 L820.074,583.038 L858.074,580.368 L858.074,192.96727 C858.074,117.96444 799.007123,56.433188 724.345587,53.1074672 L722.078388,53.0245501 L320.111,41.522 Z M168.073929,172.619094 L168.073929,628.85 L347.100699,616.272841 C347.262599,607.758284 347.939469,599.140513 349.159113,590.462293 C363.766946,486.522159 450.830285,412.379092 544.171423,425.497333 L586.598687,431.460097 C588.040265,431.662697 589.366606,432.163221 590.524226,432.890692 C656.352817,449.367449 703.995397,513.279481 711.433435,590.670862 L800.074,584.443 L800.074,181.343094 L168.073929,172.619094 Z"></path></clipPath></defs><g transform="translate(31.000071338392445 8.519906122841348)"><g clip-path="url(#i0)"><polygon points="-7.10542736e-15,0 898.074003,0 898.074003,944.436722 -7.10542736e-15,944.436722 -7.10542736e-15,0" stroke="none" fill="#000000"></polygon></g></g></svg>