<?xml version="1.0" encoding="utf-8"?>
<!-- Generator: Adobe Illustrator 19.2.1, SVG Export Plug-In . SVG Version: 6.00 Build 0)  -->
<svg version="1.1" id="layer" xmlns="http://www.w3.org/2000/svg" xmlns:xlink="http://www.w3.org/1999/xlink" x="0px" y="0px"
	 viewBox="0 0 652 652" style="enable-background:new 0 0 652 652;" xml:space="preserve">
<path d="M20.3,301.7h14.4c8.8,0,15.6,2.3,15.6,10.3c0,4.4-2.9,7.9-7,9.1v0.3c5.9,1.2,9.1,4.1,9.1,9.7c0,8.5-7,12.3-16.1,12.3H20.3
	V301.7z M34,318.5c4.7,0,6.7-2.1,6.7-5c0-2.9-2.1-4.4-6.5-4.4h-4.7v9.4H34z M34.9,336.1c5,0,7.9-1.8,7.9-5.6s-2.6-5.3-7.9-5.3h-5.3
	v10.9H34.9z"/>
<path d="M59,301.7h11.7c12.9,0,20.8,6.5,20.8,20.5s-8.2,21.1-20.5,21.1H58.7L59,301.7z M70.1,335.8c7,0,11.7-3.5,11.7-13.5
	s-4.7-12.9-11.7-12.9h-1.8v26.4H70.1z"/>
<path d="M122.1,343.4l-7.9-15h-5v15h-9.7v-41.7h15c8.8,0,16.1,2.9,16.1,12.9c0.3,5.3-2.6,10-7.3,12l9.4,16.7H122.1z M108.9,320.8
	h4.7c5,0,7.6-2.1,7.6-6.2s-2.6-5.6-7.6-5.6h-4.7V320.8z"/>
<path d="M156.1,309.7h-11.4v-7.9h32.3v7.9h-11.4v33.7h-9.4C156.1,343.4,156.1,309.7,156.1,309.7z"/>
<path d="M183.7,301.7h9.4v16.1h14.4v-16.1h9.4v41.7h-9.4v-17.3h-14.4v17.3h-9.4C183.7,343.4,183.7,301.7,183.7,301.7z"/>
<path d="M226.5,301.7h26.1v7.9h-16.7v8.2H250v7.9h-14.1v9.7h17.3v7.9h-26.7C226.5,343.4,226.5,301.7,226.5,301.7z"/>
<path d="M284,343.4l-7.9-15h-5.3v15h-9.4v-41.7h15c8.8,0,16.1,2.9,16.1,12.9c0.3,5.3-2.6,10-7.3,12l9.4,16.7H284z M270.8,320.8h4.7
	c5,0,7.6-2.1,7.6-6.2s-2.6-5.6-7.6-5.6h-4.7V320.8z"/>
<path d="M300.7,301.7h10l7,18.8l2.3,7.3h0.3l2.3-7.3l6.7-18.8h10v41.7h-8.8v-15.3c0-4.1,0.9-10.3,1.2-14.1h-0.3l-3.5,9.7l-6.5,16.1
	h-3.8l-6.5-16.1l-3.2-9.7h-0.3c0.6,4.1,1.2,10,1.2,14.1v15.3h-8.8L300.7,301.7z"/>
<path d="M349.4,301.7h26.1v7.9h-16.7v8.2h14.1v7.9h-14.1v9.7h17.3v7.9h-26.7L349.4,301.7z"/>
<path d="M404,333.4h-12.9l-2.6,10h-9.4l13.2-41.7h11.1l13.2,41.7h-10L404,333.4z M402,326.1l-1.2-3.8c-1.2-4.1-2.3-9.1-3.2-13.5
	h-0.3c-0.9,4.4-2.1,9.4-3.2,13.5l-1.2,3.8H402z"/>
<path d="M450.1,300.6c4.4,0,8.5,1.8,11.4,5l-1.8,1.8c-2.3-2.9-5.9-4.4-9.7-4.4c-9.7,0-15.6,7.3-15.6,19.1s5.6,19.4,15.3,19.4
	c3.5,0.3,6.7-0.9,9.4-3.2v-13.2h-10v-2.6h12.9v17c-3.2,3.2-7.9,5-12.6,4.7c-10.9,0-18.2-8.5-18.2-22S438.9,300.6,450.1,300.6z"/>
<path d="M496.4,343.4L485,324h-8.8v19.4h-2.9v-42.2h12c8.5,0,13.8,2.9,13.8,11.1c0,6.7-4.1,10.6-10.9,11.4l11.4,19.7H496.4z
	 M484.4,321.4c7.6,0,11.4-2.9,11.4-9.1s-4.1-8.5-11.4-8.5h-8.5v17.9h8.5V321.4z"/>
<path d="M507.6,322c0-13.2,7.3-21.7,17.3-21.7c10,0,17.3,8.5,17.3,21.7s-7.3,22-17.3,22C514.9,344,507.6,335.5,507.6,322z
	 M539.3,322c0-11.7-5.9-19.1-14.4-19.1c-8.5,0-14.4,7.3-14.4,19.1s5.9,19.4,14.4,19.4C533.4,341.4,539.3,333.7,539.3,322L539.3,322z
	"/>
<path d="M552.2,301.2h2.9v25.5c0,11.1,5.3,14.7,11.1,14.7c5.9,0,11.4-3.2,11.4-14.7v-25.5h2.9V327c0,13.2-7,17-14.4,17
	s-14.4-3.8-14.4-17v-25.8H552.2z"/>
<path d="M593.8,301.2h11.4c9.4,0,15,2.9,15,11.7c0,8.2-5.6,12.3-15,12.3h-8.5v18.2h-2.9V301.2z M604.4,322.6
	c8.5,0,12.6-2.9,12.6-9.7s-4.1-9.4-12.6-9.4h-7.9v19.1H604.4z"/>
</svg>
