<svg xmlns="http://www.w3.org/2000/svg" viewBox="0 0 109.13 109.13"><defs><style>.cls-1{font-size:8px;fill:#231f20;font-family:MyriadPro-Regular, Myriad Pro;}.cls-2{letter-spacing:0.01em;}.cls-3{letter-spacing:-0.04em;}.cls-4{letter-spacing:-0.01em;}.cls-5{letter-spacing:0em;}.cls-6{letter-spacing:0em;}.cls-7,.cls-8{fill:none;stroke:#191238;stroke-linecap:round;stroke-linejoin:round;}.cls-7{stroke-width:2px;}.cls-8{stroke-width:1.95px;}</style></defs><g id="Laag_1" data-name="Laag 1"><text class="cls-1" transform="translate(6.31 -4.29)">E-<tspan class="cls-2" x="6.39" y="0">t</tspan><tspan x="9.11" y="0">wist</tspan><tspan class="cls-3" x="22.69" y="0"> </tspan><tspan class="cls-4" x="24.06" y="0">T</tspan><tspan x="27.98" y="0">he</tspan><tspan class="cls-5" x="36.42" y="0">r</tspan><tspan x="39.07" y="0">most</tspan><tspan class="cls-6" x="55.95" y="0">a</tspan><tspan x="59.77" y="0">t</tspan></text><polyline class="cls-7" points="66.18 67.97 75.14 67.97 79.7 67.97 86.16 67.97 86.16 37.75 21.32 37.75 21.32 67.97 42.94 67.97"/><path class="cls-7" d="M87.47,84.36h5.35a2.84,2.84,0,0,0,2.84-2.83V32.9a2.84,2.84,0,0,0-2.84-2.84H16.31a2.84,2.84,0,0,0-2.84,2.84V81.53a2.84,2.84,0,0,0,2.84,2.83H87.47Z"/><line class="cls-8" x1="42.65" y1="67.94" x2="14.4" y2="67.94"/><circle class="cls-7" cx="54.57" cy="67.49" r="11.63"/><line class="cls-8" x1="94.43" y1="68" x2="66.19" y2="68"/></g></svg>