<?xml version="1.0" encoding="UTF-8"?><svg version="1.1" width="960px" height="960px" viewBox="0 0 960.0 960.0" xmlns="http://www.w3.org/2000/svg" xmlns:xlink="http://www.w3.org/1999/xlink"><defs><clipPath id="i0"><path d="M115.562572,0.129389176 L897.924798,36.4900409 C931.54525,38.0525672 958,65.7653699 958,99.4221119 L958,717.130561 C958,746.075907 935.177378,769.873372 906.257334,771.08336 L120.313451,803.966509 C110.285621,804.386064 100.244767,803.545914 90.4260973,801.46574 L53.9064017,793.728711 C22.4801555,787.070775 0,759.32903 0,727.205252 L0,72.5260385 C0,42.3087963 21.134674,16.2086739 50.6913677,9.92507757 L85.0378438,2.6231989 C95.0644758,0.49159011 105.322913,-0.346503815 115.562572,0.129389176 Z M378.532548,580.427387 L93.999,583.478 L93.999,732.892703 C93.999,749.311712 106.764623,762.749384 122.91162,763.82347 L493.476573,748.323996 C430.289353,723.988333 383.956517,658.632344 378.532548,580.427387 Z M82.5475352,44.0461794 L59.0092629,49.0506781 C47.9255027,51.4070268 40,61.1945726 40,72.5260385 L40,727.205252 C40,740.43269 49.2565346,751.855762 62.1967536,754.597265 L80.9235442,758.565914 C76.5219803,751.025482 74,742.253612 74,732.892703 L74,71.701672 L74.0039269,71.3883605 C74.1309633,61.2527646 77.2652201,51.8594071 82.5475352,44.0461794 Z M918,574.639 L761.71349,576.318361 C757.986306,649.676046 718.227581,712.279547 662.002725,741.272467 L904.585235,731.118324 C912.083024,730.804624 918,724.63491 918,717.130561 L918,574.639 Z M591.5,391.510506 C508.701191,391.510506 441,468.913426 441,565.010506 C441,661.107587 508.701191,738.510506 591.5,738.510506 C674.298809,738.510506 742,661.107587 742,565.010506 C742,468.913426 674.298809,391.510506 591.5,391.510506 Z M503.132326,399.460713 L503.062021,399.490209 C442.321199,421.597245 398,487.168635 398,565.010506 C398,642.883035 442.356117,708.475415 503.133794,730.556904 C453.819131,696.588977 421,635.048708 421,565.010506 C421,494.972305 453.819131,433.432036 503.132326,399.460713 Z M595.5,433.510506 C659.841173,433.510506 712,493.728208 712,568.010506 C712,642.292805 659.841173,702.510506 595.5,702.510506 C531.158827,702.510506 479,642.292805 479,568.010506 C479,493.728208 531.158827,433.510506 595.5,433.510506 Z M682.417687,617.781791 L510.037336,621.195934 C526.30183,657.817362 558.778375,682.510506 595.5,682.510506 C633.351585,682.510506 666.69282,656.274317 682.417687,617.781791 Z M595.5,453.510506 C542.894063,453.510506 499,504.186484 499,568.010506 C499,579.627585 500.454224,590.809065 503.150513,601.328642 L688.734712,597.653049 C690.862657,588.217232 692,578.284209 692,568.010506 C692,504.186484 648.105937,453.510506 595.5,453.510506 Z M94.0125925,71.1429991 L93.999,71.8270016 L93.999,563.478 L163,562.738 L163,108.510506 C163,102.932909 167.55696,98.4530404 173.098764,98.5103572 L173.376658,98.5176025 L851.376658,124.073158 C856.749129,124.27566 861,128.689776 861,134.066062 L861,555.25 L918,554.639 L918,99.4221119 C918,87.2576037 908.534112,77.2199219 896.435215,76.4668815 L896.067783,76.4469114 L166.047443,42.519868 C165.837612,42.53036 165.626109,42.5343684 165.413134,42.5316991 L124.375981,42.0149465 C107.974412,41.8117798 94.4822764,54.807879 94.0125925,71.1429991 Z M183,118.893506 L183,562.523 L378.046776,560.430134 C380.182842,455.944357 455.210293,371.510506 548.155779,371.510506 L591.5,371.510506 C683.400962,371.510506 757.828985,453.731126 761.830662,556.311969 L841,555.464 L841,143.695506 L183,118.893506 Z"></path></clipPath></defs><g transform="translate(1.0 85.48949356393632)"><g clip-path="url(#i0)"><polygon points="0,0 958,0 958,804.071402 0,804.071402 0,0" stroke="none" fill="#000000"></polygon></g></g></svg>